<?xml version="1.0" standalone="no"?>
<!DOCTYPE svg PUBLIC "-//W3C//DTD SVG 20010904//EN"
 "http://www.w3.org/TR/2001/REC-SVG-20010904/DTD/svg10.dtd">
<svg version="1.0" xmlns="http://www.w3.org/2000/svg"
 width="700.000000pt" height="700.000000pt" viewBox="0 0 700.000000 700.000000"
 preserveAspectRatio="xMidYMid meet">
<metadata>
Created by potrace 1.14, written by Peter Selinger 2001-2017
</metadata>
<g transform="translate(0.000000,700.000000) scale(0.100000,-0.100000)"
fill="#000000" stroke="none">
<path d="M3298 6295 c-2 -2 -37 -6 -78 -10 -302 -26 -656 -126 -935 -263 -679
-334 -1177 -890 -1428 -1597 -35 -97 -81 -259 -92 -320 -2 -16 -7 -41 -10 -55
-6 -31 -22 -122 -29 -170 -15 -93 -21 -202 -21 -380 0 -223 6 -307 36 -478 6
-35 10 -64 8 -66 -2 -1 -40 -28 -84 -58 -218 -152 -368 -296 -425 -408 -28
-56 -33 -78 -31 -137 1 -41 59 -108 110 -129 137 -57 246 -72 511 -71 l214 2
33 -58 c308 -549 860 -1009 1473 -1230 320 -116 586 -161 935 -162 234 0 356
10 518 41 42 9 87 17 100 20 53 10 69 14 171 43 224 65 490 181 682 299 384
235 708 561 943 950 60 99 166 307 188 367 6 17 23 62 38 100 14 39 28 77 30
85 3 8 18 59 34 113 36 120 65 256 87 407 23 157 27 516 7 674 -14 114 -14
120 4 130 105 59 315 218 422 320 205 198 241 349 103 437 -56 35 -148 65
-229 74 -32 4 -69 8 -83 11 -40 6 -265 6 -390 -1 l-115 -6 -30 58 c-63 124
-220 358 -313 465 -377 439 -819 731 -1352 891 -114 35 -275 71 -359 82 -23 3
-57 8 -74 10 -17 3 -51 8 -76 11 -50 6 -488 14 -493 9z m3124 -1666 c165 -4
318 -44 318 -82 0 -45 -92 -154 -225 -267 -55 -47 -269 -199 -274 -194 -3 2
-6 15 -8 27 -6 39 -63 240 -84 297 -12 30 -34 88 -50 129 -16 41 -27 77 -24
80 3 3 58 7 123 9 64 2 122 5 127 6 6 2 13 2 16 0 3 -1 39 -4 81 -5z m-5498
-2227 c20 -46 34 -88 31 -92 -5 -8 -364 -5 -410 3 -113 20 -185 49 -185 74 0
51 142 204 295 318 22 17 44 34 50 38 5 4 25 19 44 32 l35 25 52 -158 c28 -86
68 -195 88 -240z"/>
</g>
</svg>
